<mxfile host="Electron" modified="2024-02-26T09:32:20.571Z" agent="Mozilla/5.0 (Windows NT 10.0; Win64; x64) AppleWebKit/537.36 (KHTML, like Gecko) draw.io/21.6.5 Chrome/114.0.5735.243 Electron/25.3.1 Safari/537.36" etag="x1vMZP7y9qtNuCo9popZ" version="21.6.5" type="device">
  <diagram name="Registry的映射表和构建方法" id="8423XO_LZrcbQKsapmvM">
    <mxGraphModel dx="979" dy="572" grid="1" gridSize="10" guides="1" tooltips="1" connect="1" arrows="1" fold="1" page="1" pageScale="1" pageWidth="827" pageHeight="1169" math="0" shadow="0">
      <root>
        <mxCell id="0" />
        <mxCell id="1" parent="0" />
        <mxCell id="M2-woT60TiKXGHrRTPPO-5" style="edgeStyle=orthogonalEdgeStyle;rounded=0;orthogonalLoop=1;jettySize=auto;html=1;entryX=0.5;entryY=0;entryDx=0;entryDy=0;fontFamily=Times New Roman;" edge="1" parent="1" source="M2-woT60TiKXGHrRTPPO-1" target="M2-woT60TiKXGHrRTPPO-2">
          <mxGeometry relative="1" as="geometry" />
        </mxCell>
        <mxCell id="M2-woT60TiKXGHrRTPPO-6" style="edgeStyle=orthogonalEdgeStyle;rounded=0;orthogonalLoop=1;jettySize=auto;html=1;exitX=0.5;exitY=1;exitDx=0;exitDy=0;entryX=0.5;entryY=0;entryDx=0;entryDy=0;fontFamily=Times New Roman;" edge="1" parent="1" source="M2-woT60TiKXGHrRTPPO-1" target="M2-woT60TiKXGHrRTPPO-3">
          <mxGeometry relative="1" as="geometry" />
        </mxCell>
        <mxCell id="M2-woT60TiKXGHrRTPPO-1" value="Registry" style="rounded=1;whiteSpace=wrap;html=1;fontFamily=Times New Roman;" vertex="1" parent="1">
          <mxGeometry x="250" y="190" width="120" height="60" as="geometry" />
        </mxCell>
        <mxCell id="M2-woT60TiKXGHrRTPPO-9" style="edgeStyle=orthogonalEdgeStyle;rounded=0;orthogonalLoop=1;jettySize=auto;html=1;exitX=0.5;exitY=1;exitDx=0;exitDy=0;entryX=0.5;entryY=0;entryDx=0;entryDy=0;" edge="1" parent="1" source="M2-woT60TiKXGHrRTPPO-2" target="M2-woT60TiKXGHrRTPPO-7">
          <mxGeometry relative="1" as="geometry" />
        </mxCell>
        <mxCell id="M2-woT60TiKXGHrRTPPO-2" value="映射表 Map" style="rounded=0;whiteSpace=wrap;html=1;fontFamily=Times New Roman;" vertex="1" parent="1">
          <mxGeometry x="130" y="290" width="120" height="60" as="geometry" />
        </mxCell>
        <mxCell id="M2-woT60TiKXGHrRTPPO-11" style="edgeStyle=orthogonalEdgeStyle;rounded=0;orthogonalLoop=1;jettySize=auto;html=1;exitX=0.5;exitY=1;exitDx=0;exitDy=0;entryX=0.5;entryY=0;entryDx=0;entryDy=0;" edge="1" parent="1" source="M2-woT60TiKXGHrRTPPO-3" target="M2-woT60TiKXGHrRTPPO-8">
          <mxGeometry relative="1" as="geometry" />
        </mxCell>
        <mxCell id="M2-woT60TiKXGHrRTPPO-12" value="&lt;font face=&quot;Times New Roman&quot;&gt;build_from_cfg&lt;/font&gt;" style="edgeLabel;html=1;align=center;verticalAlign=middle;resizable=0;points=[];" vertex="1" connectable="0" parent="M2-woT60TiKXGHrRTPPO-11">
          <mxGeometry x="-0.169" relative="1" as="geometry">
            <mxPoint as="offset" />
          </mxGeometry>
        </mxCell>
        <mxCell id="M2-woT60TiKXGHrRTPPO-3" value="构建方法&lt;br&gt;（Build Function）" style="rounded=0;whiteSpace=wrap;html=1;fontFamily=Times New Roman;" vertex="1" parent="1">
          <mxGeometry x="370" y="290" width="120" height="60" as="geometry" />
        </mxCell>
        <mxCell id="M2-woT60TiKXGHrRTPPO-10" style="edgeStyle=orthogonalEdgeStyle;rounded=0;orthogonalLoop=1;jettySize=auto;html=1;exitX=1;exitY=0.5;exitDx=0;exitDy=0;entryX=0;entryY=0.5;entryDx=0;entryDy=0;" edge="1" parent="1" source="M2-woT60TiKXGHrRTPPO-7" target="M2-woT60TiKXGHrRTPPO-3">
          <mxGeometry relative="1" as="geometry" />
        </mxCell>
        <mxCell id="M2-woT60TiKXGHrRTPPO-7" value="str → class/func" style="rounded=0;whiteSpace=wrap;html=1;fontFamily=Times New Roman;" vertex="1" parent="1">
          <mxGeometry x="130" y="390" width="120" height="60" as="geometry" />
        </mxCell>
        <mxCell id="M2-woT60TiKXGHrRTPPO-8" value="1. 定义映射表规则&lt;br&gt;2. 实例化对应的class&lt;br&gt;3. 调用对应的func" style="rounded=0;whiteSpace=wrap;html=1;fontFamily=Times New Roman;align=left;" vertex="1" parent="1">
          <mxGeometry x="370" y="390" width="120" height="60" as="geometry" />
        </mxCell>
      </root>
    </mxGraphModel>
  </diagram>
</mxfile>
